<svg xmlns="http://www.w3.org/2000/svg" version="1.1" xmlns:xlink="http://www.w3.org/1999/xlink" viewBox="0 0 200 200"><rect width="200" height="200" fill="url('#gradient')"></rect><defs><linearGradient id="gradient" gradientTransform="rotate(45 0.5 0.5)"><stop offset="0%" stop-color="#f1eee5"></stop><stop offset="100%" stop-color="#d5c3a1"></stop></linearGradient></defs><g><g fill="#1d425b" transform="matrix(4.969533566999191,0,0,4.969533566999191,6.667977435195439,135.3129110692421)" stroke="#778ca7" stroke-width="0.2"><path d="M13.12-7.47L13.12-6.82Q13.12-4.74 12.34-3.13Q11.57-1.53 10.15-0.67Q8.73 0.20 6.91 0.20Q5.10 0.20 3.69-0.64Q2.29-1.47 1.50-3.03Q0.71-4.58 0.67-6.59L0.67-6.59L0.67-7.39Q0.67-9.48 1.44-11.08Q2.21-12.68 3.64-13.54Q5.07-14.41 6.89-14.41L6.89-14.41Q8.70-14.41 10.12-13.55Q11.53-12.70 12.32-11.11Q13.11-9.52 13.12-7.47L13.12-7.47ZM9.63-6.76L9.63-7.41Q9.63-9.53 8.92-10.63Q8.21-11.73 6.89-11.73L6.89-11.73Q4.32-11.73 4.17-7.86L4.17-7.86L4.16-6.82Q4.16-4.73 4.85-3.60Q5.55-2.48 6.91-2.48L6.91-2.48Q8.21-2.48 8.92-3.58Q9.62-4.69 9.63-6.76L9.63-6.76ZM18.31-14.22L18.31-2.64L24.28-2.64L24.28 0L14.88 0L14.88-14.22L18.31-14.22ZM30.40 0L25.72 0L25.72-14.22L30.30-14.22Q32.19-14.22 33.69-13.36Q35.20-12.51 36.04-10.95Q36.88-9.39 36.89-7.46L36.89-7.46L36.89-6.81Q36.89-4.85 36.07-3.31Q35.24-1.76 33.75-0.88Q32.25-0.01 30.40 0L30.40 0ZM30.30-11.57L29.15-11.57L29.15-2.64L30.34-2.64Q31.82-2.64 32.61-3.69Q33.40-4.74 33.40-6.81L33.40-6.81L33.40-7.42Q33.40-9.48 32.61-10.53Q31.82-11.57 30.30-11.57L30.30-11.57Z"></path></g></g></svg>